<svg width="99" height="45" viewBox="0 0 99 45" fill="none" xmlns="http://www.w3.org/2000/svg">
<g filter="url(#filter0_i_5_6)">
<circle r="22.5" transform="matrix(-1 0 0 1 22.5 22.5)" fill="#1890FF"/>
</g>
<path d="M54.006 19.6875H51.5355L51.5547 17.3611H54.006C54.6854 17.3611 55.2141 17.2394 55.5922 16.9958C55.9703 16.7523 56.2363 16.3678 56.3901 15.8423C56.5503 15.3168 56.6304 14.6278 56.6304 13.7755V11.5933C56.6304 10.946 56.5887 10.3981 56.5054 9.94949C56.4221 9.49448 56.2811 9.12918 56.0825 8.85361C55.8838 8.57162 55.6178 8.36334 55.2846 8.22876C54.9513 8.09418 54.538 8.02689 54.0445 8.02689H51.4874V5.69092H54.0445C54.852 5.69092 55.5858 5.8223 56.2459 6.08505C56.906 6.34781 57.4731 6.73233 57.9474 7.23862C58.4216 7.73849 58.7869 8.35693 59.0433 9.09393C59.2996 9.83093 59.4278 10.6705 59.4278 11.6125V13.7755C59.4278 14.724 59.2996 15.5635 59.0433 16.2941C58.7869 17.0247 58.4216 17.6431 57.9474 18.1494C57.4796 18.6493 56.9124 19.0306 56.2459 19.2934C55.5794 19.5561 54.8328 19.6875 54.006 19.6875ZM53.1697 5.69092V19.6875H50.3531V5.69092H53.1697Z" fill="#6A6A6A"/>
<path d="M71.3191 11.6029V13.9389C71.3191 14.9258 71.1974 15.791 70.9538 16.5344C70.7167 17.2714 70.377 17.8899 69.9348 18.3897C69.4991 18.8832 68.9703 19.2549 68.3487 19.5049C67.7335 19.7548 67.0509 19.8798 66.3011 19.8798C65.5513 19.8798 64.8656 19.7548 64.2439 19.5049C63.6287 19.2549 63.0968 18.8832 62.6482 18.3897C62.206 17.8899 61.8631 17.2714 61.6196 16.5344C61.376 15.791 61.2543 14.9258 61.2543 13.9389V11.6029C61.2543 10.5904 61.3728 9.70596 61.61 8.94974C61.8471 8.1871 62.1899 7.55264 62.6385 7.04636C63.0872 6.53366 63.6191 6.14914 64.2343 5.89279C64.8495 5.63004 65.5321 5.49866 66.2819 5.49866C67.0317 5.49866 67.7142 5.63004 68.3295 5.89279C68.9447 6.14914 69.4766 6.53366 69.9252 7.04636C70.3738 7.55264 70.7167 8.1871 70.9538 8.94974C71.1974 9.70596 71.3191 10.5904 71.3191 11.6029ZM68.5217 13.9389V11.5837C68.5217 10.9172 68.4737 10.35 68.3775 9.8822C68.2814 9.40796 68.1372 9.02023 67.9449 8.71902C67.7527 8.41782 67.5188 8.19672 67.2432 8.05573C66.9676 7.91473 66.6472 7.84424 66.2819 7.84424C65.9166 7.84424 65.593 7.91473 65.311 8.05573C65.0354 8.19672 64.8015 8.41782 64.6092 8.71902C64.4234 9.02023 64.2824 9.40796 64.1862 9.8822C64.0965 10.35 64.0517 10.9172 64.0517 11.5837V13.9389C64.0517 14.5798 64.0997 15.1277 64.1959 15.5827C64.292 16.0378 64.4362 16.4095 64.6284 16.6978C64.8207 16.9862 65.0546 17.2009 65.3302 17.3419C65.6122 17.4765 65.9358 17.5438 66.3011 17.5438C66.66 17.5438 66.9772 17.4765 67.2528 17.3419C67.5348 17.2009 67.7687 16.9862 67.9546 16.6978C68.1404 16.4095 68.2814 16.0378 68.3775 15.5827C68.4737 15.1277 68.5217 14.5798 68.5217 13.9389Z" fill="#6A6A6A"/>
<path d="M74.3665 5.69092H76.837L79.6921 15.2655L82.5375 5.69092H84.7197L80.7399 19.6875H78.6346L74.3665 5.69092ZM73.3667 5.69092H75.7219L76.0872 14.9194V19.6875H73.3667V5.69092ZM83.643 5.69092H86.0078V19.6875H83.297V14.9194L83.643 5.69092Z" fill="#6A6A6A"/>
<path d="M98.1395 11.6029V13.9389C98.1395 14.9258 98.0177 15.791 97.7742 16.5344C97.5371 17.2714 97.1974 17.8899 96.7552 18.3897C96.3194 18.8832 95.7907 19.2549 95.1691 19.5049C94.5538 19.7548 93.8713 19.8798 93.1215 19.8798C92.3717 19.8798 91.6859 19.7548 91.0643 19.5049C90.4491 19.2549 89.9171 18.8832 89.4685 18.3897C89.0263 17.8899 88.6835 17.2714 88.4399 16.5344C88.1964 15.791 88.0746 14.9258 88.0746 13.9389V11.6029C88.0746 10.5904 88.1932 9.70596 88.4303 8.94974C88.6674 8.1871 89.0103 7.55264 89.4589 7.04636C89.9075 6.53366 90.4395 6.14914 91.0547 5.89279C91.6699 5.63004 92.3524 5.49866 93.1023 5.49866C93.8521 5.49866 94.5346 5.63004 95.1498 5.89279C95.7651 6.14914 96.297 6.53366 96.7456 7.04636C97.1942 7.55264 97.5371 8.1871 97.7742 8.94974C98.0177 9.70596 98.1395 10.5904 98.1395 11.6029ZM95.3421 13.9389V11.5837C95.3421 10.9172 95.294 10.35 95.1979 9.8822C95.1018 9.40796 94.9576 9.02023 94.7653 8.71902C94.5731 8.41782 94.3391 8.19672 94.0636 8.05573C93.788 7.91473 93.4676 7.84424 93.1023 7.84424C92.737 7.84424 92.4133 7.91473 92.1313 8.05573C91.8558 8.19672 91.6219 8.41782 91.4296 8.71902C91.2437 9.02023 91.1028 9.40796 91.0066 9.8822C90.9169 10.35 90.872 10.9172 90.872 11.5837V13.9389C90.872 14.5798 90.9201 15.1277 91.0162 15.5827C91.1124 16.0378 91.2566 16.4095 91.4488 16.6978C91.6411 16.9862 91.875 17.2009 92.1506 17.3419C92.4326 17.4765 92.7562 17.5438 93.1215 17.5438C93.4804 17.5438 93.7976 17.4765 94.0732 17.3419C94.3552 17.2009 94.5891 16.9862 94.7749 16.6978C94.9608 16.4095 95.1018 16.0378 95.1979 15.5827C95.294 15.1277 95.3421 14.5798 95.3421 13.9389Z" fill="#6A6A6A"/>
<path d="M56.2747 34.287C56.2747 34.037 56.2523 33.8095 56.2074 33.6044C56.1626 33.3994 56.0664 33.2103 55.919 33.0373C55.778 32.8642 55.5698 32.6912 55.2942 32.5182C55.025 32.3451 54.6725 32.1657 54.2368 31.9798C53.7177 31.7619 53.2146 31.5312 52.7275 31.2877C52.2404 31.0378 51.8015 30.7494 51.4105 30.4225C51.0196 30.0957 50.7088 29.7112 50.4781 29.269C50.2538 28.8203 50.1416 28.2948 50.1416 27.6924C50.1416 27.1028 50.2473 26.5677 50.4588 26.087C50.6767 25.6064 50.9843 25.1962 51.3817 24.8566C51.779 24.5105 52.2437 24.2445 52.7756 24.0587C53.3139 23.8728 53.9131 23.7799 54.5732 23.7799C55.4704 23.7799 56.2459 23.9658 56.8996 24.3375C57.5597 24.7092 58.0692 25.2187 58.428 25.8659C58.7933 26.5132 58.976 27.2566 58.976 28.0962H56.169C56.169 27.6988 56.1113 27.3495 55.9959 27.0483C55.887 26.7407 55.7108 26.5004 55.4672 26.3274C55.2237 26.1543 54.9097 26.0678 54.5251 26.0678C54.1663 26.0678 53.8683 26.1415 53.6311 26.2889C53.4004 26.4299 53.2274 26.6254 53.112 26.8753C53.0031 27.1188 52.9486 27.3944 52.9486 27.702C52.9486 27.9327 53.0031 28.141 53.112 28.3269C53.2274 28.5063 53.3844 28.6697 53.5831 28.8171C53.7817 28.9581 54.0157 29.0959 54.2848 29.2305C54.5604 29.3651 54.8616 29.4965 55.1884 29.6246C55.8229 29.8746 56.3837 30.1501 56.8707 30.4514C57.3578 30.7462 57.7647 31.0794 58.0916 31.4511C58.4184 31.8164 58.6652 32.2298 58.8318 32.6912C58.9984 33.1526 59.0817 33.6781 59.0817 34.2677C59.0817 34.8509 58.9792 35.3828 58.7741 35.8635C58.5754 36.3377 58.2838 36.7479 57.8993 37.094C57.5148 37.4336 57.0502 37.6964 56.5054 37.8822C55.9671 38.0681 55.3647 38.161 54.6982 38.161C54.0509 38.161 53.4389 38.0713 52.8621 37.8918C52.2853 37.706 51.7758 37.4272 51.3336 37.0555C50.8978 36.6774 50.555 36.2 50.305 35.6232C50.0551 35.04 49.9301 34.351 49.9301 33.5564H52.7467C52.7467 33.9793 52.7884 34.3414 52.8717 34.6426C52.955 34.9374 53.0832 35.1746 53.2562 35.354C53.4293 35.527 53.6407 35.6584 53.8907 35.7481C54.147 35.8315 54.4386 35.8731 54.7655 35.8731C55.1372 35.8731 55.432 35.8026 55.6499 35.6616C55.8742 35.5206 56.0344 35.3316 56.1305 35.0945C56.2267 34.8573 56.2747 34.5882 56.2747 34.287Z" fill="#6A6A6A"/>
<path d="M63.8402 35.8731L66.08 23.9722H67.5604L68.0026 25.8179L65.5994 37.9688H63.994L63.8402 35.8731ZM63.0711 23.9722L64.8784 35.9019L64.5708 37.9688H62.802L60.293 23.9722H63.0711ZM69.6272 35.8539L71.4249 23.9722H74.1934L71.7036 37.9688H69.9252L69.6272 35.8539ZM68.416 23.9722L70.675 35.9404L70.4924 37.9688H68.887L66.4934 25.7986L66.9452 23.9722H68.416Z" fill="#6A6A6A"/>
<path d="M80.3938 26.4716L77.3849 37.9688H74.4145L78.7885 23.9722H80.6438L80.3938 26.4716ZM82.7682 37.9688L79.7401 26.4716L79.4614 23.9722H81.3455L85.7579 37.9688H82.7682ZM82.874 32.7489V35.0848H76.5582V32.7489H82.874Z" fill="#6A6A6A"/>
<path d="M91.8622 33.0373H88.9975V30.7013H91.8622C92.2595 30.7013 92.5832 30.6116 92.8331 30.4321C93.0894 30.2527 93.2753 30.006 93.3907 29.6919C93.506 29.3715 93.5637 29.0126 93.5637 28.6153C93.5637 28.2115 93.5028 27.8366 93.381 27.4905C93.2657 27.1381 93.083 26.8529 92.8331 26.635C92.5896 26.4171 92.2659 26.3081 91.8622 26.3081H89.9011V37.9688H87.0941V23.9722H91.8622C92.8043 23.9722 93.615 24.1708 94.2943 24.5682C94.9736 24.9655 95.4927 25.5135 95.8516 26.212C96.2169 26.9041 96.3995 27.6988 96.3995 28.596C96.3995 29.4997 96.2169 30.2847 95.8516 30.9512C95.4927 31.6113 94.9736 32.124 94.2943 32.4893C93.615 32.8546 92.8043 33.0373 91.8622 33.0373Z" fill="#6A6A6A"/>
<path d="M26.4675 35.1562H19.6648L19.7077 31.0882H26.4675C28.1557 31.0882 29.5792 30.781 30.738 30.1668C31.8969 29.5409 32.7696 28.6311 33.3561 27.4373C33.957 26.2436 34.2575 24.8006 34.2575 23.1085V21.8741C34.2575 20.5761 34.0858 19.4345 33.7424 18.4493C33.4134 17.4642 32.9198 16.6355 32.2617 15.9633C31.6036 15.291 30.7953 14.7869 29.8367 14.4508C28.8782 14.1031 27.7766 13.9292 26.5319 13.9292H19.536V9.84375H26.5319C28.6207 9.84375 30.5306 10.1335 32.2617 10.713C34.0071 11.2809 35.5164 12.098 36.7897 13.1643C38.063 14.2306 39.043 15.5055 39.7297 16.989C40.4307 18.4609 40.7812 20.1009 40.7812 21.9089V23.1085C40.7812 24.9049 40.4307 26.5449 39.7297 28.0284C39.043 29.5119 38.063 30.7868 36.7897 31.8531C35.5307 32.9078 34.0214 33.7249 32.2617 34.3044C30.5163 34.8723 28.5849 35.1562 26.4675 35.1562ZM23.3129 9.84375V35.1562H16.875V9.84375H23.3129Z" fill="white"/>
<defs>
<filter id="filter0_i_5_6" x="0" y="0" width="45" height="49" filterUnits="userSpaceOnUse" color-interpolation-filters="sRGB">
<feFlood flood-opacity="0" result="BackgroundImageFix"/>
<feBlend mode="normal" in="SourceGraphic" in2="BackgroundImageFix" result="shape"/>
<feColorMatrix in="SourceAlpha" type="matrix" values="0 0 0 0 0 0 0 0 0 0 0 0 0 0 0 0 0 0 127 0" result="hardAlpha"/>
<feOffset dy="4"/>
<feGaussianBlur stdDeviation="2"/>
<feComposite in2="hardAlpha" operator="arithmetic" k2="-1" k3="1"/>
<feColorMatrix type="matrix" values="0 0 0 0 0 0 0 0 0 0 0 0 0 0 0 0 0 0 0.25 0"/>
<feBlend mode="normal" in2="shape" result="effect1_innerShadow_5_6"/>
</filter>
</defs>
</svg>
